<?xml version="1.0" encoding="UTF-8"?>
<svg width="24" height="24" viewBox="0 0 24 24" fill="none" xmlns="http://www.w3.org/2000/svg">
    <path d="M21.53 15.93C20.07 17.58 18.08 18.69 15.87 19.02C13.66 19.35 11.41 18.89 9.47 17.71C7.53 16.53 6.01 14.71 5.17 12.52C4.33 10.33 4.22 7.91 4.86 5.64C3.61 6.29 2.53 7.2 1.7 8.31C0.87 9.42 0.31 10.7 0.07 12.06C-0.17 13.42 -0.08 14.82 0.33 16.14C0.74 17.46 1.46 18.67 2.43 19.67C3.4 20.67 4.59 21.43 5.9 21.89C7.21 22.35 8.61 22.49 9.98 22.3C11.35 22.11 12.65 21.59 13.78 20.8C14.91 20.01 15.85 18.96 16.53 17.74C18.12 18.33 19.82 18.53 21.49 18.32C21.51 18.31 21.52 18.31 21.54 18.3C21.89 17.59 22.14 16.83 22.28 16.04C22.06 16.01 21.8 15.97 21.53 15.93Z" fill="white"/>
</svg>
